<mxfile host="app.diagrams.net" modified="2024-02-01T14:52:43.462Z" agent="Mozilla/5.0 (Windows NT 10.0; Win64; x64) AppleWebKit/537.36 (KHTML, like Gecko) Chrome/121.0.0.0 Safari/537.36" etag="qYdz1bFpU5cUFVSPCjJr" version="23.1.0" type="device">
  <diagram id="C5RBs43oDa-KdzZeNtuy" name="Page-1">
    <mxGraphModel dx="1195" dy="622" grid="1" gridSize="10" guides="1" tooltips="1" connect="1" arrows="1" fold="1" page="1" pageScale="1" pageWidth="827" pageHeight="1169" math="0" shadow="0">
      <root>
        <mxCell id="WIyWlLk6GJQsqaUBKTNV-0" />
        <mxCell id="WIyWlLk6GJQsqaUBKTNV-1" parent="WIyWlLk6GJQsqaUBKTNV-0" />
        <mxCell id="GzsRBJ46YUFf-iyTDQtb-59" style="edgeStyle=orthogonalEdgeStyle;rounded=0;orthogonalLoop=1;jettySize=auto;html=1;entryX=0;entryY=0.5;entryDx=0;entryDy=0;strokeWidth=2;" edge="1" parent="WIyWlLk6GJQsqaUBKTNV-1" source="GzsRBJ46YUFf-iyTDQtb-0" target="GzsRBJ46YUFf-iyTDQtb-1">
          <mxGeometry relative="1" as="geometry" />
        </mxCell>
        <mxCell id="GzsRBJ46YUFf-iyTDQtb-60" style="edgeStyle=orthogonalEdgeStyle;rounded=0;orthogonalLoop=1;jettySize=auto;html=1;entryX=0;entryY=0.5;entryDx=0;entryDy=0;strokeWidth=2;" edge="1" parent="WIyWlLk6GJQsqaUBKTNV-1" source="GzsRBJ46YUFf-iyTDQtb-0" target="GzsRBJ46YUFf-iyTDQtb-43">
          <mxGeometry relative="1" as="geometry" />
        </mxCell>
        <mxCell id="GzsRBJ46YUFf-iyTDQtb-61" style="edgeStyle=orthogonalEdgeStyle;rounded=0;orthogonalLoop=1;jettySize=auto;html=1;entryX=0;entryY=0.5;entryDx=0;entryDy=0;strokeWidth=2;" edge="1" parent="WIyWlLk6GJQsqaUBKTNV-1" source="GzsRBJ46YUFf-iyTDQtb-0" target="GzsRBJ46YUFf-iyTDQtb-47">
          <mxGeometry relative="1" as="geometry" />
        </mxCell>
        <mxCell id="GzsRBJ46YUFf-iyTDQtb-62" style="edgeStyle=orthogonalEdgeStyle;rounded=0;orthogonalLoop=1;jettySize=auto;html=1;entryX=0;entryY=0.5;entryDx=0;entryDy=0;strokeWidth=2;" edge="1" parent="WIyWlLk6GJQsqaUBKTNV-1" source="GzsRBJ46YUFf-iyTDQtb-0" target="GzsRBJ46YUFf-iyTDQtb-48">
          <mxGeometry relative="1" as="geometry" />
        </mxCell>
        <mxCell id="GzsRBJ46YUFf-iyTDQtb-63" style="edgeStyle=orthogonalEdgeStyle;rounded=0;orthogonalLoop=1;jettySize=auto;html=1;entryX=0;entryY=0.5;entryDx=0;entryDy=0;strokeWidth=2;" edge="1" parent="WIyWlLk6GJQsqaUBKTNV-1" source="GzsRBJ46YUFf-iyTDQtb-0" target="GzsRBJ46YUFf-iyTDQtb-49">
          <mxGeometry relative="1" as="geometry" />
        </mxCell>
        <mxCell id="GzsRBJ46YUFf-iyTDQtb-95" style="edgeStyle=orthogonalEdgeStyle;rounded=0;orthogonalLoop=1;jettySize=auto;html=1;entryX=0.5;entryY=0;entryDx=0;entryDy=0;strokeWidth=2;" edge="1" parent="WIyWlLk6GJQsqaUBKTNV-1" source="GzsRBJ46YUFf-iyTDQtb-0" target="GzsRBJ46YUFf-iyTDQtb-76">
          <mxGeometry relative="1" as="geometry" />
        </mxCell>
        <mxCell id="GzsRBJ46YUFf-iyTDQtb-0" value="Sélection du mode" style="rounded=1;whiteSpace=wrap;html=1;" vertex="1" parent="WIyWlLk6GJQsqaUBKTNV-1">
          <mxGeometry x="60" y="130" width="120" height="60" as="geometry" />
        </mxCell>
        <mxCell id="GzsRBJ46YUFf-iyTDQtb-70" value="" style="edgeStyle=orthogonalEdgeStyle;rounded=0;orthogonalLoop=1;jettySize=auto;html=1;strokeWidth=2;" edge="1" parent="WIyWlLk6GJQsqaUBKTNV-1" source="GzsRBJ46YUFf-iyTDQtb-1" target="GzsRBJ46YUFf-iyTDQtb-64">
          <mxGeometry relative="1" as="geometry" />
        </mxCell>
        <mxCell id="GzsRBJ46YUFf-iyTDQtb-1" value="Mode 1" style="rounded=0;whiteSpace=wrap;html=1;" vertex="1" parent="WIyWlLk6GJQsqaUBKTNV-1">
          <mxGeometry x="180" y="230" width="100" height="50" as="geometry" />
        </mxCell>
        <mxCell id="GzsRBJ46YUFf-iyTDQtb-71" value="" style="edgeStyle=orthogonalEdgeStyle;rounded=0;orthogonalLoop=1;jettySize=auto;html=1;strokeWidth=2;" edge="1" parent="WIyWlLk6GJQsqaUBKTNV-1" source="GzsRBJ46YUFf-iyTDQtb-43" target="GzsRBJ46YUFf-iyTDQtb-65">
          <mxGeometry relative="1" as="geometry" />
        </mxCell>
        <mxCell id="GzsRBJ46YUFf-iyTDQtb-43" value="Mode 2" style="rounded=0;whiteSpace=wrap;html=1;" vertex="1" parent="WIyWlLk6GJQsqaUBKTNV-1">
          <mxGeometry x="180" y="300" width="100" height="50" as="geometry" />
        </mxCell>
        <mxCell id="GzsRBJ46YUFf-iyTDQtb-72" value="" style="edgeStyle=orthogonalEdgeStyle;rounded=0;orthogonalLoop=1;jettySize=auto;html=1;strokeWidth=2;" edge="1" parent="WIyWlLk6GJQsqaUBKTNV-1" source="GzsRBJ46YUFf-iyTDQtb-47" target="GzsRBJ46YUFf-iyTDQtb-66">
          <mxGeometry relative="1" as="geometry" />
        </mxCell>
        <mxCell id="GzsRBJ46YUFf-iyTDQtb-47" value="Mode 3" style="rounded=0;whiteSpace=wrap;html=1;" vertex="1" parent="WIyWlLk6GJQsqaUBKTNV-1">
          <mxGeometry x="180" y="370" width="100" height="50" as="geometry" />
        </mxCell>
        <mxCell id="GzsRBJ46YUFf-iyTDQtb-73" value="" style="edgeStyle=orthogonalEdgeStyle;rounded=0;orthogonalLoop=1;jettySize=auto;html=1;strokeWidth=2;" edge="1" parent="WIyWlLk6GJQsqaUBKTNV-1" source="GzsRBJ46YUFf-iyTDQtb-48" target="GzsRBJ46YUFf-iyTDQtb-68">
          <mxGeometry relative="1" as="geometry" />
        </mxCell>
        <mxCell id="GzsRBJ46YUFf-iyTDQtb-48" value="Mode 4" style="rounded=0;whiteSpace=wrap;html=1;" vertex="1" parent="WIyWlLk6GJQsqaUBKTNV-1">
          <mxGeometry x="180" y="440" width="100" height="50" as="geometry" />
        </mxCell>
        <mxCell id="GzsRBJ46YUFf-iyTDQtb-74" value="" style="edgeStyle=orthogonalEdgeStyle;rounded=0;orthogonalLoop=1;jettySize=auto;html=1;strokeWidth=2;" edge="1" parent="WIyWlLk6GJQsqaUBKTNV-1" source="GzsRBJ46YUFf-iyTDQtb-49" target="GzsRBJ46YUFf-iyTDQtb-69">
          <mxGeometry relative="1" as="geometry" />
        </mxCell>
        <mxCell id="GzsRBJ46YUFf-iyTDQtb-49" value="Mode 5" style="rounded=0;whiteSpace=wrap;html=1;" vertex="1" parent="WIyWlLk6GJQsqaUBKTNV-1">
          <mxGeometry x="180" y="510" width="100" height="50" as="geometry" />
        </mxCell>
        <mxCell id="GzsRBJ46YUFf-iyTDQtb-79" value="" style="edgeStyle=orthogonalEdgeStyle;rounded=0;orthogonalLoop=1;jettySize=auto;html=1;strokeWidth=2;" edge="1" parent="WIyWlLk6GJQsqaUBKTNV-1" source="GzsRBJ46YUFf-iyTDQtb-56" target="GzsRBJ46YUFf-iyTDQtb-77">
          <mxGeometry relative="1" as="geometry" />
        </mxCell>
        <mxCell id="GzsRBJ46YUFf-iyTDQtb-56" value="Réglage BPM (+ / -)" style="rounded=1;whiteSpace=wrap;html=1;" vertex="1" parent="WIyWlLk6GJQsqaUBKTNV-1">
          <mxGeometry x="630" y="130" width="120" height="60" as="geometry" />
        </mxCell>
        <mxCell id="GzsRBJ46YUFf-iyTDQtb-85" style="edgeStyle=orthogonalEdgeStyle;rounded=0;orthogonalLoop=1;jettySize=auto;html=1;entryX=0.25;entryY=0;entryDx=0;entryDy=0;strokeWidth=2;" edge="1" parent="WIyWlLk6GJQsqaUBKTNV-1" source="GzsRBJ46YUFf-iyTDQtb-64" target="GzsRBJ46YUFf-iyTDQtb-80">
          <mxGeometry relative="1" as="geometry">
            <Array as="points">
              <mxPoint x="480" y="255" />
              <mxPoint x="480" y="370" />
              <mxPoint x="600" y="370" />
            </Array>
          </mxGeometry>
        </mxCell>
        <mxCell id="GzsRBJ46YUFf-iyTDQtb-64" value="Pulses pour Croche" style="rounded=0;whiteSpace=wrap;html=1;" vertex="1" parent="WIyWlLk6GJQsqaUBKTNV-1">
          <mxGeometry x="310" y="230" width="100" height="50" as="geometry" />
        </mxCell>
        <mxCell id="GzsRBJ46YUFf-iyTDQtb-84" style="edgeStyle=orthogonalEdgeStyle;rounded=0;orthogonalLoop=1;jettySize=auto;html=1;entryX=0;entryY=0.25;entryDx=0;entryDy=0;strokeWidth=2;" edge="1" parent="WIyWlLk6GJQsqaUBKTNV-1" source="GzsRBJ46YUFf-iyTDQtb-65" target="GzsRBJ46YUFf-iyTDQtb-80">
          <mxGeometry relative="1" as="geometry">
            <Array as="points">
              <mxPoint x="460" y="325" />
              <mxPoint x="460" y="425" />
            </Array>
          </mxGeometry>
        </mxCell>
        <mxCell id="GzsRBJ46YUFf-iyTDQtb-65" value="Pulses pour Double croche" style="rounded=0;whiteSpace=wrap;html=1;" vertex="1" parent="WIyWlLk6GJQsqaUBKTNV-1">
          <mxGeometry x="310" y="300" width="100" height="50" as="geometry" />
        </mxCell>
        <mxCell id="GzsRBJ46YUFf-iyTDQtb-83" style="edgeStyle=orthogonalEdgeStyle;rounded=0;orthogonalLoop=1;jettySize=auto;html=1;entryX=0;entryY=0.5;entryDx=0;entryDy=0;strokeWidth=2;" edge="1" parent="WIyWlLk6GJQsqaUBKTNV-1" source="GzsRBJ46YUFf-iyTDQtb-66" target="GzsRBJ46YUFf-iyTDQtb-80">
          <mxGeometry relative="1" as="geometry">
            <Array as="points">
              <mxPoint x="440" y="395" />
              <mxPoint x="440" y="440" />
            </Array>
          </mxGeometry>
        </mxCell>
        <mxCell id="GzsRBJ46YUFf-iyTDQtb-66" value="Pulses pour Triple croche" style="rounded=0;whiteSpace=wrap;html=1;" vertex="1" parent="WIyWlLk6GJQsqaUBKTNV-1">
          <mxGeometry x="310" y="370" width="100" height="50" as="geometry" />
        </mxCell>
        <mxCell id="GzsRBJ46YUFf-iyTDQtb-82" style="edgeStyle=orthogonalEdgeStyle;rounded=0;orthogonalLoop=1;jettySize=auto;html=1;entryX=0;entryY=0.75;entryDx=0;entryDy=0;strokeWidth=2;" edge="1" parent="WIyWlLk6GJQsqaUBKTNV-1" source="GzsRBJ46YUFf-iyTDQtb-68" target="GzsRBJ46YUFf-iyTDQtb-80">
          <mxGeometry relative="1" as="geometry">
            <Array as="points">
              <mxPoint x="440" y="465" />
              <mxPoint x="440" y="455" />
            </Array>
          </mxGeometry>
        </mxCell>
        <mxCell id="GzsRBJ46YUFf-iyTDQtb-68" value="Pulses pour Quadruple croche" style="rounded=0;whiteSpace=wrap;html=1;" vertex="1" parent="WIyWlLk6GJQsqaUBKTNV-1">
          <mxGeometry x="310" y="440" width="100" height="50" as="geometry" />
        </mxCell>
        <mxCell id="GzsRBJ46YUFf-iyTDQtb-81" style="edgeStyle=orthogonalEdgeStyle;rounded=0;orthogonalLoop=1;jettySize=auto;html=1;entryX=0.25;entryY=1;entryDx=0;entryDy=0;strokeWidth=2;" edge="1" parent="WIyWlLk6GJQsqaUBKTNV-1" source="GzsRBJ46YUFf-iyTDQtb-69" target="GzsRBJ46YUFf-iyTDQtb-80">
          <mxGeometry relative="1" as="geometry" />
        </mxCell>
        <mxCell id="GzsRBJ46YUFf-iyTDQtb-69" value="Pulses pour Croche Terner" style="rounded=0;whiteSpace=wrap;html=1;" vertex="1" parent="WIyWlLk6GJQsqaUBKTNV-1">
          <mxGeometry x="310" y="510" width="100" height="50" as="geometry" />
        </mxCell>
        <mxCell id="GzsRBJ46YUFf-iyTDQtb-86" style="edgeStyle=orthogonalEdgeStyle;rounded=0;orthogonalLoop=1;jettySize=auto;html=1;entryX=0.5;entryY=0;entryDx=0;entryDy=0;strokeWidth=2;" edge="1" parent="WIyWlLk6GJQsqaUBKTNV-1" source="GzsRBJ46YUFf-iyTDQtb-76" target="GzsRBJ46YUFf-iyTDQtb-80">
          <mxGeometry relative="1" as="geometry" />
        </mxCell>
        <mxCell id="GzsRBJ46YUFf-iyTDQtb-76" value="Lecture du PEC12" style="rounded=0;whiteSpace=wrap;html=1;" vertex="1" parent="WIyWlLk6GJQsqaUBKTNV-1">
          <mxGeometry x="490" y="230" width="100" height="50" as="geometry" />
        </mxCell>
        <mxCell id="GzsRBJ46YUFf-iyTDQtb-87" style="edgeStyle=orthogonalEdgeStyle;rounded=0;orthogonalLoop=1;jettySize=auto;html=1;entryX=0.75;entryY=0;entryDx=0;entryDy=0;strokeWidth=2;" edge="1" parent="WIyWlLk6GJQsqaUBKTNV-1" source="GzsRBJ46YUFf-iyTDQtb-77" target="GzsRBJ46YUFf-iyTDQtb-80">
          <mxGeometry relative="1" as="geometry" />
        </mxCell>
        <mxCell id="GzsRBJ46YUFf-iyTDQtb-77" value="Lecture du PEC12" style="rounded=0;whiteSpace=wrap;html=1;" vertex="1" parent="WIyWlLk6GJQsqaUBKTNV-1">
          <mxGeometry x="640" y="230" width="100" height="50" as="geometry" />
        </mxCell>
        <mxCell id="GzsRBJ46YUFf-iyTDQtb-80" value="Affichage sur l&#39;écran" style="rounded=0;whiteSpace=wrap;html=1;strokeWidth=3;" vertex="1" parent="WIyWlLk6GJQsqaUBKTNV-1">
          <mxGeometry x="570" y="410" width="120" height="60" as="geometry" />
        </mxCell>
        <mxCell id="GzsRBJ46YUFf-iyTDQtb-90" style="edgeStyle=orthogonalEdgeStyle;rounded=0;orthogonalLoop=1;jettySize=auto;html=1;entryX=0.75;entryY=1;entryDx=0;entryDy=0;strokeWidth=2;" edge="1" parent="WIyWlLk6GJQsqaUBKTNV-1" source="GzsRBJ46YUFf-iyTDQtb-88" target="GzsRBJ46YUFf-iyTDQtb-80">
          <mxGeometry relative="1" as="geometry" />
        </mxCell>
        <mxCell id="GzsRBJ46YUFf-iyTDQtb-88" value="Changement des valeurs" style="rounded=0;whiteSpace=wrap;html=1;" vertex="1" parent="WIyWlLk6GJQsqaUBKTNV-1">
          <mxGeometry x="610" y="610" width="100" height="50" as="geometry" />
        </mxCell>
        <mxCell id="GzsRBJ46YUFf-iyTDQtb-93" value="" style="edgeStyle=orthogonalEdgeStyle;rounded=0;orthogonalLoop=1;jettySize=auto;html=1;" edge="1" parent="WIyWlLk6GJQsqaUBKTNV-1" source="GzsRBJ46YUFf-iyTDQtb-92" target="GzsRBJ46YUFf-iyTDQtb-88">
          <mxGeometry relative="1" as="geometry" />
        </mxCell>
        <mxCell id="GzsRBJ46YUFf-iyTDQtb-94" value="&lt;b&gt;OUI&lt;/b&gt;" style="edgeLabel;html=1;align=center;verticalAlign=middle;resizable=0;points=[];" vertex="1" connectable="0" parent="GzsRBJ46YUFf-iyTDQtb-93">
          <mxGeometry x="-0.3" y="-3" relative="1" as="geometry">
            <mxPoint y="-18" as="offset" />
          </mxGeometry>
        </mxCell>
        <mxCell id="GzsRBJ46YUFf-iyTDQtb-92" value="Pression sur Touchscreen" style="rhombus;whiteSpace=wrap;html=1;" vertex="1" parent="WIyWlLk6GJQsqaUBKTNV-1">
          <mxGeometry x="450" y="595" width="100" height="80" as="geometry" />
        </mxCell>
      </root>
    </mxGraphModel>
  </diagram>
</mxfile>
